<svg width="29" height="26" fill="none" xmlns="http://www.w3.org/2000/svg"><path d="M26 1c-.38.016-.689-.123-1 0-.291.114-1.247 1.268-3 2-1.755.732-4.521.962-7 2-4.957 2.075-10.145 4.804-13 6-.107.045-.602-.302-1 0s-1 1.302-1 2c0 .562.653.666 1 1 .347.333.686.875 1 1 1.14.453 4.332 1.734 5 2 .235.7 1.703 5.066 2 6 .196.616-.242.694 0 1 .121.153.83-.105 1 0 .068.042-.076-.03 0 0 .017.007-.018-.006 0 0 .033.011-.045-.01 0 0 .178.056.84 1 1 1 .683 0 1-1 1-1l3-3 5 4c.06.082-.233 1 1 1 .732 0 1.627-.62 2-1 .373-.381.901-.497 1-1 .092-.476 4-20 4-20 .115-.51.127-1.531 0-2-.127-.47-.586-.759-1-1-.414-.242-.62-.017-1 0zm0 2c-.006.033.009-.04 0 0 0 0-3.857 20.262-4 21 .01-.056.05-.067 0 0-.07-.047-1 0-1 0l-6-6-4 4 2-5s7.54-7.552 8-8c.371-.359 0-.876 0-1 0-.166.198 0 0 0-.178 0-.872-.08-1 0-1.672 1.037-8.71 5.137-12 7-.523-.209-3.769-1.511-5-2 .01-.004-.01.004 0 0 2.856-1.196 8.043-3.925 13-6 2.478-1.038 5.247-1.268 7-2 1.727-.72 2.864-1.946 3-2z" fill="#7A0000" fill-opacity=".75"/></svg>