<svg width="37" height="37" fill="none" xmlns="http://www.w3.org/2000/svg"><path fill-rule="evenodd" clip-rule="evenodd" d="M18.885 2.161a.997.997 0 01.323.218l6.165 6.165a1 1 0 01-1.414 1.414l-4.46-4.46v17.628a1 1 0 01-2 0V5.498l-4.46 4.46a1 1 0 11-1.413-1.414l6.166-6.167a.997.997 0 01.704-.293h.003c.137 0 .267.027.386.077zM6.166 17.5a1 1 0 011 1v12.333a2.083 2.083 0 002.083 2.084h18.5a2.083 2.083 0 002.084-2.084V18.5a1 1 0 112 0v12.333a4.083 4.083 0 01-4.084 4.084H9.25a4.083 4.083 0 01-4.083-4.084V18.5a1 1 0 011-1z" fill="url(#paint0_linear_2072_814)"/><defs><linearGradient id="paint0_linear_2072_814" x1="5.166" y1="2.084" x2="33.161" y2="3.258" gradientUnits="userSpaceOnUse"><stop stop-color="#7A0000"/><stop offset="1" stop-color="#900"/></linearGradient></defs></svg>