<svg width="30" height="30" fill="none" xmlns="http://www.w3.org/2000/svg"><path d="M6.742 14.67c4.362-1.941 7.27-3.22 8.726-3.838 4.156-1.765 5.02-2.072 5.582-2.082.124-.002.4.03.58.178a.649.649 0 01.213.414c.02.118.044.39.025.601-.225 2.416-1.2 8.278-1.695 10.984-.21 1.145-.623 1.529-1.023 1.566-.869.082-1.529-.586-2.37-1.15-1.317-.88-2.061-1.43-3.34-2.29-1.477-.994-.52-1.54.323-2.433.22-.233 4.048-3.789 4.123-4.112.009-.04.017-.19-.07-.27-.088-.08-.217-.052-.31-.03-.132.03-2.236 1.45-6.311 4.259-.598.419-1.139.623-1.623.612-.534-.012-1.562-.308-2.326-.562-.937-.311-1.682-.475-1.617-1.004.034-.275.405-.556 1.113-.844z" fill="#fff"/></svg>