<svg width="25" height="25" fill="none" xmlns="http://www.w3.org/2000/svg"><path d="M7 0C3.17 0 0 3.17 0 7v11c0 3.83 3.17 7 7 7h11c3.83 0 7-3.17 7-7V7c0-3.83-3.17-7-7-7H7zm0 3h11c2.297 0 4 1.703 4 4v11c0 2.297-1.703 4-4 4H7c-2.297 0-4-1.703-4-4V7c0-2.297 1.703-4 4-4zm12 1c-.368 0-.74.74-1 1s0 .632 0 1-.26.74 0 1 .632 0 1 0 .74.26 1 0 1-.632 1-1-.74-.74-1-1-.632-1-1-1zm-6 2c-3.83 0-7 3.17-7 7s3.17 6 7 6 6-2.17 6-6-2.17-7-6-7zm0 2c2.297 0 4 2.703 4 5s-1.703 4-4 4c-2.297 0-5-1.703-5-4 0-2.297 2.703-5 5-5z" fill="#7A0000" fill-opacity=".75"/></svg>