<svg width="30" height="30" fill="none" xmlns="http://www.w3.org/2000/svg"><path d="M11.876 15a3.125 3.125 0 116.25 0 3.125 3.125 0 01-6.25 0zm-1.69 0a4.814 4.814 0 109.628 0 4.814 4.814 0 00-9.627 0zm8.694-5.005a1.125 1.125 0 101.126-1.124h-.001a1.126 1.126 0 00-1.125 1.124zm-7.667 12.636c-.914-.042-1.41-.194-1.741-.323a2.914 2.914 0 01-1.078-.7 2.892 2.892 0 01-.702-1.078c-.128-.33-.28-.827-.322-1.741-.046-.989-.055-1.285-.055-3.789 0-2.504.01-2.8.055-3.789.042-.914.195-1.41.322-1.74.17-.438.374-.75.702-1.079a2.89 2.89 0 011.078-.701c.33-.129.827-.281 1.741-.323.988-.045 1.285-.054 3.788-.054 2.502 0 2.8.01 3.788.054.914.042 1.41.195 1.741.323a2.9 2.9 0 011.078.701c.329.328.531.64.702 1.078.128.33.28.827.322 1.741.046.99.055 1.285.055 3.79 0 2.503-.01 2.799-.055 3.788-.041.914-.194 1.41-.322 1.74-.17.438-.374.75-.702 1.078a2.9 2.9 0 01-1.078.701c-.33.13-.827.282-1.74.323-.99.046-1.286.055-3.79.055-2.503 0-2.8-.01-3.787-.055zm-.078-16.95c-.998.046-1.68.204-2.275.436-.617.24-1.14.56-1.66 1.082a4.58 4.58 0 00-1.082 1.66c-.232.596-.39 1.278-.436 2.276-.046 1-.057 1.32-.057 3.865 0 2.546.011 2.866.057 3.865.046.998.204 1.68.436 2.276.239.616.56 1.14 1.081 1.66a4.61 4.61 0 001.66 1.082c.597.232 1.278.39 2.276.435 1 .046 1.32.057 3.866.057 2.545 0 2.865-.01 3.865-.057.998-.045 1.68-.204 2.275-.435a4.61 4.61 0 001.66-1.082 4.592 4.592 0 001.082-1.66c.232-.596.391-1.278.436-2.276.045-1 .056-1.32.056-3.865 0-2.546-.01-2.866-.056-3.865-.046-.998-.204-1.68-.436-2.276a4.61 4.61 0 00-1.081-1.66 4.587 4.587 0 00-1.66-1.082c-.597-.232-1.278-.39-2.276-.435-1-.046-1.319-.057-3.865-.057-2.546 0-2.865.01-3.866.057z" fill="#fff"/></svg>