<svg width="25" height="25" viewBox="0 0 25 25" fill="none" xmlns="http://www.w3.org/2000/svg">
<path d="M7 0C3.17083 0 0 3.17083 0 7V18C0 21.8292 3.17083 25 7 25H18C21.8292 25 25 21.8292 25 18V7C25 3.17083 21.8292 0 18 0H7ZM7 3H18C20.2972 3 22 4.70278 22 7V18C22 20.2972 20.2972 22 18 22H7C4.70278 22 3 20.2972 3 18V7C3 4.70278 4.70278 3 7 3ZM19 4C18.6316 4 18.2605 4.73953 18 5C17.7395 5.26047 18 5.63164 18 6C18 6.36836 17.7395 6.73953 18 7C18.2605 7.26047 18.6316 7 19 7C19.3684 7 19.7395 7.26047 20 7C20.2605 6.73953 21 6.36836 21 6C21 5.63164 20.2605 5.26047 20 5C19.7395 4.73953 19.3684 4 19 4ZM13 6C9.17083 6 6 9.17083 6 13C6 16.8292 9.17083 19 13 19C16.8292 19 19 16.8292 19 13C19 9.17083 16.8292 6 13 6ZM13 8C15.2972 8 17 10.7028 17 13C17 15.2972 15.2972 17 13 17C10.7028 17 8 15.2972 8 13C8 10.7028 10.7028 8 13 8Z" fill="#7A0000" fill-opacity="0.75"/>
</svg>
