<svg width="229" height="34" fill="none" xmlns="http://www.w3.org/2000/svg"><path d="M22.967 26.549l.053.138-.615 2.32L21.281 34h-.327l-5.19-23.615-3.672 16.075v.088l-.38 1.413L10.352 34h-.326L2.68 2.227H0V2h9.033v.227H6.536l5.36 23.552L17.398 2h.326l5.085 23.78 4.053-17.564c.47-1.992-.327-4.224-1.974-5.586l-.562-.403V2H32v.227l-1.085.68c-1.79 1.186-3.242 3.317-3.712 5.309l-4.236 18.333zM43 14.657v.226h-2.528v18.892H43V34h-9v-.225h2.473V14.883H34v-.226h9zm-4.85-2.793h.247v-2.53c0-1.98 1.429-3.333 3.655-3.333h.096v-.226h-.096c-2.226 0-3.655-1.353-3.655-3.332V0h-.247v2.43c0 1.98-1.484 3.333-3.655 3.333h-.055v.225h.055c2.17 0 3.655 1.353 3.655 3.333v2.543zm13.973 20.915V33H46v-.221l.092-.087c1.7-1.5 2.825-3.936 2.825-6.113V2.22H46V2h7.719l28.076 26.215V8.42c0-2.165-1.125-4.6-2.826-6.113l-.092-.087V2H85v.221l-.092.087c-1.7 1.5-2.826 3.936-2.826 6.113V33h-.235L49.205 2.492V26.58c0 2.165 1.125 4.65 2.826 6.114l.092.086zm69.943-3.445c-1.868 2.08-5.046 3.457-7.887 3.457H95.123V16.528h18.771c2.283 0 4.527 1.243 5.694 3.15l.052.085h.234v-6.692h-.234l-.052.087c-1.167 1.906-3.411 3.149-5.694 3.149H95.123V2.22h19.056c2.854 0 6.019 1.378 7.887 3.457l.701.75H123V2H89v.221h2.335V32.78H89V33h34v-4.429h-.233l-.701.763zm15.947-3.472h.235c0 .539 0 5.722 3.525 7.3.992.362 2.063.625 3.107.625 3.003 0 5.405-1.753 5.405-4.87 0-7.524-12.076-11.668-12.076-20.332 0-4.644 3.76-6.585 7.337-6.585l6.201.225h.235v7.938h-.287c0-3.919-1.554-7.938-6.162-7.938-3.003 0-4.374 2.254-4.374 4.82 0 8.426 11.841 12.082 11.841 20.194 0 4.82-4.556 6.761-8.133 6.761l-6.632-.225H138v-7.913h.013zm52.053 3.472c-1.868 2.08-5.046 3.457-7.887 3.457h-19.056V16.528h18.771c2.283 0 4.527 1.243 5.694 3.15l.052.085h.234v-6.692h-.234l-.052.087c-1.167 1.906-3.411 3.149-5.694 3.149h-18.771V2.22h19.056c2.854 0 6.019 1.378 7.887 3.457l.7.75H191V2h-34v.221h2.335V32.78H157V33h34v-4.429h-.234l-.7.763zm5.168-22.905H195V2h34v4.429h-.234l-.234-.271c-2.159-2.387-5.762-3.937-9.04-3.937h-5.437V32.78h2.393V33h-8.519v-.221h2.341V2.22h-5.762c-3.278 0-6.881 1.6-9.04 3.937l-.234.27z" fill="#fff"/></svg>