<svg width="16" height="20" fill="none" xmlns="http://www.w3.org/2000/svg"><path fill-rule="evenodd" clip-rule="evenodd" d="M.575 9.07c.318 0 .576.258.576.576v7.097a1.199 1.199 0 001.199 1.2h10.646a1.199 1.199 0 001.2-1.2V9.646a.575.575 0 111.15 0v7.097a2.35 2.35 0 01-2.35 2.35H2.35A2.35 2.35 0 010 16.743V9.646c0-.318.258-.576.575-.576z" fill="url(#paint0_linear_7682_939)"/><path fill-rule="evenodd" clip-rule="evenodd" d="M7.266.368a.575.575 0 01.814 0l3.549 3.549a.576.576 0 01-.814.813L7.673 1.59 4.531 4.73a.575.575 0 01-.814-.813l3.55-3.55z" fill="url(#paint1_linear_7682_939)"/><path fill-rule="evenodd" clip-rule="evenodd" d="M7.673.2c.318 0 .576.257.576.575v11.533a.576.576 0 01-1.151 0V.775c0-.318.257-.576.575-.576z" fill="url(#paint2_linear_7682_939)"/><defs><linearGradient id="paint0_linear_7682_939" x1="0" y1="9.07" x2="16.039" y2="10.339" gradientUnits="userSpaceOnUse"><stop stop-color="#7A0000"/><stop offset="1" stop-color="#900"/></linearGradient><linearGradient id="paint1_linear_7682_939" x1="3.549" y1=".199" x2="12.153" y2=".979" gradientUnits="userSpaceOnUse"><stop stop-color="#7A0000"/><stop offset="1" stop-color="#900"/></linearGradient><linearGradient id="paint2_linear_7682_939" x1="7.098" y1=".199" x2="8.308" y2=".205" gradientUnits="userSpaceOnUse"><stop stop-color="#7A0000"/><stop offset="1" stop-color="#900"/></linearGradient></defs></svg>